<?xml version="1.0" standalone="no"?>
<!DOCTYPE svg PUBLIC "-//W3C//DTD SVG 20010904//EN"
 "http://www.w3.org/TR/2001/REC-SVG-20010904/DTD/svg10.dtd">
<svg version="1.0" xmlns="http://www.w3.org/2000/svg"
 width="1055.000000pt" height="1520.000000pt" viewBox="0 0 1055.000000 1520.000000"
 preserveAspectRatio="xMidYMid meet">

<g transform="translate(0.000000,1520.000000) scale(0.100000,-0.100000)"
fill="#FFFFFF" stroke="none">
<path d="M4955 15190 c-429 -31 -821 -107 -1208 -235 -560 -184 -1140 -488
-1612 -844 -616 -465 -1052 -1095 -1453 -2097 -151 -378 -236 -656 -326 -1069
-186 -853 -305 -1688 -347 -2450 -33 -585 45 -1382 216 -2229 89 -441 132
-583 272 -901 289 -655 672 -1343 1136 -2040 228 -342 1252 -1769 1360 -1895
468 -546 1042 -1027 1472 -1235 245 -118 560 -194 807 -195 250 0 571 78 823
201 427 208 997 688 1462 1229 122 142 1157 1590 1396 1952 376 569 639 1024
898 1553 306 625 365 791 474 1331 171 847 249 1644 216 2229 -42 760 -161
1599 -347 2450 -90 413 -175 691 -326 1069 -401 1002 -837 1632 -1453 2097
-471 356 -1052 660 -1609 844 -328 107 -678 185 -997 220 -169 19 -677 28
-854 15z m-4165 -7896 c47 -12 164 -32 260 -44 570 -71 889 -162 1309 -375
460 -233 778 -464 1039 -756 460 -515 849 -1227 1138 -2083 97 -288 248 -805
237 -816 -2 -3 -138 -5 -301 -5 -324 1 -427 10 -707 66 -485 96 -929 285
-1390 594 -459 307 -791 633 -1074 1055 -412 615 -607 1268 -637 2136 -8 213
-2 270 24 258 9 -4 55 -17 102 -30z m9096 -21 c9 -71 -10 -470 -31 -653 -84
-736 -329 -1347 -771 -1920 -116 -151 -434 -469 -604 -604 -74 -59 -211 -159
-305 -221 -461 -307 -893 -493 -1370 -590 -296 -59 -397 -69 -727 -70 -163 0
-299 2 -302 5 -9 10 124 471 218 755 296 887 670 1589 1126 2108 280 319 605
559 1076 796 413 207 724 297 1269 366 196 25 350 55 383 75 28 16 30 12 38
-47z"/>
</g>
</svg>
